# xmcd CD database file
#
# Track frame offsets:
#	150
#	16892
#	37412
#
# Disc length: 828 seconds
#
# Revision: 2
# Processed by: cddbd v1.5.2PL0 Copyright (c) Steve Scherf et al.
# Submitted via: CDex 1.81
#
DISCID=20033a03
DTITLE=Pan Dana - Ca'oma (Te Nana Ae)
DYEAR=1995
DGENRE=World Music
TTITLE0=Ca'oma (Te Nana Ae)
TTITLE1=Whispering Waves
TTITLE2=Pedro And Blanca
EXTD=YEAR: 1995
EXTT0=
EXTT1=
EXTT2=
PLAYORDER=
